{"accessors" : [{"bufferView" : 0, "byteOffset" : 0, "componentType" : 5123, "count" : 5622, "type" : "SCALAR", "max" : [4484], "min" : [0]}, {"bufferView" : 1, "byteOffset" : 0, "componentType" : 5126, "count" : 4485, "type" : "VEC3", "max" : [0.6585440039634705, 0.2043289989233017, 0.30567899346351624], "min" : [-0.012737000361084938, 0.0032480000518262386, -0.09551999717950821], "name" : "POSITION"}, {"bufferView" : 1, "byteOffset" : 12, "componentType" : 5126, "count" : 4485, "type" : "VEC3", "max" : [0.9985391497612, 0.9970405101776123, 0.9998599886894226], "min" : [-0.9491862654685974, -0.9999918937683105, -0.9996111989021301], "name" : "NORMAL"}, {"bufferView" : 1, "byteOffset" : 24, "componentType" : 5126, "count" : 4485, "type" : "VEC2", "max" : [1, 1], "min" : [0, 0.8055089712142944], "name" : "TEXCOORD_0"}], "asset" : {"generator" : "Aspose.3D 22.3", "version" : "2.0"}, "buffers" : [{"uri" : "data:application/octet-stream;base64,", "byteLength" : 191156}], "bufferViews" : [{"buffer" : 0, "byteOffset" : 0, "byteLength" : 11244, "target" : 34963}, {"buffer" : 0, "byteOffset" : 11248, "byteLength" : 179904, "byteStride" : 32, "target" : 34962}], "materials" : [{"name" : "None", "pbrMetallicRoughness" : {"baseColorFactor" : [0.6000000238418579, 0.6000000238418579, 0.6000000238418579, 1], "metallicFactor" : 0, "roughnessFactor" : 1}, "emissiveFactor" : [0, 0, 0], "alphaMode" : "OPAQUE", "doubleSided" : false}], "meshes" : [{"primitives" : [{"attributes" : {"POSITION" : 1, "NORMAL" : 2, "TEXCOORD_0" : 3}, "indices" : 0, "material" : 0, "mode" : 4}]}], "nodes" : [{"mesh" : 0, "name" : "Plane.001"}, {"children" : [0], "name" : "input.obj"}], "scene" : 0, "scenes" : [{"nodes" : [1]}]}